<?xml version="1.0" encoding="utf-8"?>
<!-- Generator: Adobe Illustrator 24.1.0, SVG Export Plug-In . SVG Version: 6.00 Build 0)  -->
<svg version="1.1" id="Layer_1" xmlns="http://www.w3.org/2000/svg" xmlns:xlink="http://www.w3.org/1999/xlink" x="0px" y="0px"
	 viewBox="0 0 170 40" style="enable-background:new 0 0 170 40;" xml:space="preserve">
<style type="text/css">
	.st0{fill:#E42313;}
	.st1{fill:#FFFFFF;}
	.st2{fill:#1D1D1B;}
</style>
<g id="Layer_2_1_">
	<g id="Layer_1-2">
		<path class="st0" d="M5.4,23.7v0.1c0,0.8,0.2,1.5,0.8,2.1c0.6,0.5,1.3,0.8,2.1,0.8c1,0,1.8-0.2,2.4-0.5c0.5-0.3,0.8-0.9,0.8-1.6
			c0-1-1.1-1.8-3.4-2.3l-1.2-0.3c-2.6-0.7-4.3-1.4-5.2-2.3S0.3,17.6,0.3,16c0-1.7,0.7-3.1,2.2-4.1s3.4-1.6,5.9-1.6
			c2.6,0,4.5,0.5,5.9,1.4c1.3,1,2,2.4,2,4.2v0.3h-5.4v-0.1c0-0.8-0.2-1.4-0.6-1.8c-0.4-0.4-1-0.6-1.8-0.6c-0.7,0-1.3,0.2-1.9,0.5
			c-0.5,0.3-0.7,0.9-0.7,1.4c0,1,1.4,1.8,4.2,2.5c0.8,0.2,1.3,0.3,1.8,0.4c1.8,0.5,3.1,1.1,3.9,2c0.8,0.9,1.2,2,1.2,3.5
			c0,2-0.8,3.5-2.3,4.5c-1.5,1.1-3.7,1.6-6.6,1.6c-2.6,0-4.6-0.6-6-1.7C0.7,27.4,0,25.8,0,23.7H5.4z"/>
		<path class="st0" d="M19.2,29.9V10.6h8.9c2.5,0,4.4,0.5,5.7,1.6c1.3,1,1.9,2.6,1.9,4.6c0,2-0.6,3.5-1.9,4.6S30.8,23,28.5,23h-3.9
			v6.9L19.2,29.9z M24.6,19.3H27c1.1,0,2-0.2,2.5-0.6c0.5-0.4,0.8-1.1,0.8-2s-0.3-1.5-0.8-1.9c-0.5-0.4-1.4-0.6-2.5-0.6h-2.4V19.3z"
			/>
		<path class="st0" d="M37.8,29.9V10.6h5.4v19.3H37.8z"/>
		<path class="st0" d="M46.1,29.9V10.6h7.6l6.1,13.7V10.6h4.6v19.3H57l-6.3-14.2v14.2H46.1z"/>
		<path class="st0" d="M114.8,14.8c-0.5-0.4-1.3-0.5-2.4-0.5h-2.2v4.7h2.1c1.2,0,2.1-0.2,2.6-0.5c0.5-0.4,0.7-1,0.7-1.9
			C115.6,15.7,115.3,15.1,114.8,14.8z"/>
		<path class="st0" d="M114.9,24.5c-0.1-0.7-0.4-1.2-0.8-1.5c-0.4-0.3-1-0.5-1.8-0.5h-2.1v7.5h5.4c-0.2-0.9-0.3-2-0.5-3.2
			C115,25.5,114.9,24.7,114.9,24.5z"/>
		<polygon class="st0" points="71.3,29.9 77.6,29.9 71.3,15.7 		"/>
		<path class="st0" d="M170,0H66.8v10.6h7.5l6.1,13.7V10.6H85v19.3h3V10.6h14.3v3.7h-9v3.9h8.6v3.7h-8.6V26h9.3v3.9h2.4V10.6h8.7
			c2.4,0,4.2,0.4,5.4,1.2c1.2,0.8,1.8,2.1,1.8,3.7c0,1.3-0.4,2.4-1.2,3.2c-0.8,0.8-1.9,1.3-3.4,1.5v0.1c1.1,0,1.9,0.2,2.5,0.7
			c0.6,0.4,1.1,1.2,1.3,2.2c0.1,0.3,0.2,1.2,0.5,2.7c0.2,1.3,0.4,2.7,0.8,4h1.9V10.6h5.4v19.3h5.4c-0.9-0.2-1.7-0.6-2.4-1.2
			c-1.2-1-1.8-2.5-1.8-4.5c0-0.1,0-0.2,0-0.3c0-0.1,0-0.2,0-0.3h5.2c0,1,0.2,1.7,0.4,2.1c0.3,0.4,0.7,0.6,1.4,0.6
			c0.7,0,1.2-0.3,1.5-0.8c0.3-0.5,0.4-1.5,0.4-2.9V10.6h5.3v13c0,2.1-0.6,3.8-1.9,4.9c-0.8,0.7-1.7,1.1-2.7,1.4H170V0z"/>
		<path class="st1" d="M136.8,30.2c1,0,1.9-0.1,2.8-0.3h-5.6C135,30.1,135.9,30.2,136.8,30.2z"/>
		<path class="st2" d="M66.3,35.9c0-1.3,0.4-2.3,1.1-3.1c0.7-0.7,1.7-1.1,3-1.1c1.3,0,2.3,0.4,3,1.1c0.7,0.7,1.1,1.7,1.1,3.1
			c0,1.3-0.4,2.3-1.1,3.1c-0.7,0.7-1.7,1.1-3,1.1c-1.3,0-2.3-0.4-3-1.1C66.7,38.2,66.4,37.2,66.3,35.9z M68.7,35.9
			c0,0.8,0.1,1.5,0.5,1.9c0.3,0.4,0.8,0.7,1.4,0.6c0.5,0,1-0.2,1.4-0.6c0.3-0.4,0.5-1,0.4-1.9c0-0.8-0.2-1.5-0.4-1.9
			c-0.6-0.7-1.7-0.8-2.5-0.2c-0.1,0.1-0.2,0.1-0.2,0.2C68.8,34.4,68.7,35,68.7,35.9L68.7,35.9z"/>
		<path class="st2" d="M75.3,35.9c0-1.3,0.4-2.3,1.1-3.1c0.7-0.7,1.7-1.1,3-1.1c1.3,0,2.3,0.4,3,1.1c0.7,0.7,1.1,1.7,1.1,3.1
			c0,1.3-0.4,2.3-1.1,3.1c-0.7,0.7-1.7,1.1-3,1.1c-1.3,0-2.3-0.4-3-1.1C75.6,38.2,75.3,37.2,75.3,35.9z M77.6,35.9
			c0,0.8,0.2,1.5,0.5,1.9c0.3,0.4,0.8,0.7,1.4,0.6c0.5,0,1-0.2,1.4-0.6c0.3-0.4,0.5-1,0.5-1.9c0-0.8-0.1-1.5-0.5-1.9
			c-0.6-0.7-1.7-0.8-2.5-0.2c-0.1,0.1-0.2,0.1-0.2,0.2C77.7,34.4,77.6,35,77.6,35.9L77.6,35.9z"/>
		<path class="st2" d="M86.3,37.3L86.3,37.3c0,0.4,0.1,0.7,0.3,0.9c0.2,0.2,0.5,0.3,0.9,0.3c0.3,0,0.7-0.1,1-0.2
			c0.2-0.1,0.3-0.4,0.3-0.7c0-0.4-0.5-0.7-1.4-1l-0.5-0.1c-1.1-0.3-1.8-0.6-2.1-1c-0.4-0.4-0.6-0.9-0.6-1.5c0-0.7,0.3-1.3,0.9-1.7
			c0.7-0.5,1.6-0.7,2.4-0.7c1.1,0,1.9,0.2,2.4,0.6c0.6,0.4,0.9,1.1,0.8,1.8v0.1h-2.2v0c0.1-0.5-0.3-0.9-0.8-1c-0.1,0-0.2,0-0.2,0
			c-0.3,0-0.6,0.1-0.8,0.2c-0.2,0.1-0.3,0.4-0.3,0.6c0,0.4,0.6,0.7,1.8,1c0.3,0.1,0.6,0.1,0.7,0.2c0.6,0.1,1.2,0.4,1.6,0.8
			c0.4,0.4,0.5,0.9,0.5,1.4c0,0.8-0.3,1.5-0.9,1.9c-0.6,0.4-1.5,0.6-2.7,0.6c-1.1,0-1.9-0.2-2.5-0.7c-0.6-0.5-0.9-1.1-0.9-2
			L86.3,37.3z"/>
		<path class="st2" d="M93.9,39.9v-6.4h-2.4v-1.6h7.1v1.6h-2.4v6.4H93.9z"/>
		<path class="st2" d="M99.2,39.9v-8h5.9v1.5h-3.8V35h3.6v1.5h-3.6v1.7h3.9v1.6H99.2z"/>
		<path class="st2" d="M106.2,39.9v-8h3.6c1,0,1.7,0.2,2.3,0.5c0.5,0.3,0.8,0.9,0.8,1.5c0,0.5-0.2,1-0.5,1.4
			c-0.4,0.4-0.9,0.6-1.4,0.6v0c0.4,0,0.7,0.1,1.1,0.3c0.3,0.2,0.5,0.6,0.6,0.9c0,0.1,0.1,0.5,0.2,1.1c0.1,0.6,0.2,1.1,0.3,1.6h-2.4
			c-0.1-0.4-0.1-0.8-0.2-1.3c-0.1-0.5-0.1-0.8-0.1-0.9c0-0.2-0.2-0.5-0.3-0.6c-0.2-0.1-0.5-0.2-0.8-0.2h-0.9v3.1L106.2,39.9z
			 M108.4,35.3h0.9c0.4,0,0.7,0,1.1-0.2c0.2-0.2,0.3-0.5,0.3-0.8c0-0.3-0.1-0.6-0.3-0.7c-0.3-0.2-0.7-0.3-1-0.2h-0.9V35.3z"/>
		<path class="st2" d="M116,39.9l-2.8-8h2.3l1.9,5.9l1.9-5.9h2.2l-2.9,8H116z"/>
		<path class="st2" d="M122.3,39.9v-8h5.9v1.5h-3.8V35h3.6v1.5h-3.6v1.7h3.9v1.6H122.3z"/>
		<path class="st2" d="M129.3,39.9v-8h2.2v6.5h3.6v1.6L129.3,39.9z"/>
		<path class="st2" d="M135.8,31.8h3.2c1.6,0,2.7,0.3,3.5,1c0.8,0.7,1.2,1.7,1.2,3c0,1.3-0.4,2.3-1.2,3c-0.8,0.7-2,1-3.5,1h-3.2
			V31.8z M138,33.4v5h0.8c0.9,0,1.6-0.2,2-0.6c0.4-0.4,0.6-1,0.6-1.9c0-0.9-0.2-1.5-0.6-1.9c-0.4-0.4-1.1-0.6-2-0.6L138,33.4z"/>
	</g>
</g>
</svg>
